<?xml version="1.0" encoding="utf-8"?>
<!-- Generator: Adobe Illustrator 16.0.0, SVG Export Plug-In . SVG Version: 6.00 Build 0)  -->
<!DOCTYPE svg PUBLIC "-//W3C//DTD SVG 1.1//EN" "http://www.w3.org/Graphics/SVG/1.1/DTD/svg11.dtd">
<svg version="1.1" id="svg2" xmlns:svg="http://www.w3.org/2000/svg"
	 xmlns="http://www.w3.org/2000/svg" xmlns:xlink="http://www.w3.org/1999/xlink" x="0px" y="0px" width="945px" height="190px"
	 viewBox="0 0 945 190" enable-background="new 0 0 945 190" xml:space="preserve">
<path id="path2883" fill="#9D2489" d="M232.43,136.078l-0.005-106.084c-85.223-8.217-149.546,0-149.546,0s-0.001,106.076,0,106.102
	c6.792,71.912,74.144,80.359,74.783,80.242C169.691,214.17,226.159,202.814,232.43,136.078z"/>
<path id="path2881" fill="#880A22" d="M189.156,135.438c0,19.645,9.443,33.502,21.626,41.883
	c11.118,7.461,24.215,10.203,37.921,10.203c9.749,0,20.712-2.285,24.063-3.506c1.675-0.605,3.504-1.217,5.33-1.521
	c2.285-2.893,6.245-12.944,7.31-20.865c-0.61-1.064-2.894-1.367-3.958-0.609c-3.504,8.987-12.185,21.78-31.83,21.78
	c-24.978,0-45.234-17.668-45.234-49.649c0-31.523,19.8-46.298,43.1-46.298c22.083,0,28.938,11.878,31.223,22.237
	c1.065,0.91,3.351,0.759,4.11-0.307c-1.218-9.288-1.979-18.883-2.131-22.387c-1.37,0.151-2.435-0.154-4.263-0.609
	c-7.16-1.98-18.733-3.655-26.958-3.655c-15.837,0-30.001,4.264-41.12,12.943C196.77,104.062,189.156,118.531,189.156,135.438
	L189.156,135.438z"/>
<path id="path2879" fill="#880A22" d="M232.381,3.531l0.049-0.18l-0.085-0.167c-0.244-0.48-0.951-0.519-1.163-0.519
	c-0.159,0-0.391,0.019-0.596,0.1l-0.157,0.063l-0.085,0.145c-0.816,1.415-1.155,1.53-4.526,1.53h-26.234
	c-2.841,0-4.115-0.149-4.382-1.569l-0.028-0.149l-0.107-0.106c-0.176-0.176-0.462-0.261-0.875-0.261
	c-0.152,0-0.667,0.014-0.946,0.201l-0.172,0.116l-0.035,0.205c-0.445,2.526-1.383,6.537-2.391,9.377l-0.07,0.196l0.092,0.185
	c0.381,0.765,1.684,1.135,2.379,0.613l0.103-0.076l0.051-0.117c0.644-1.465,1.252-2.849,2.737-4.216
	c1.397-1.284,4.565-1.458,7.479-1.458h3.487c1.419,0,1.419,0,1.419,1.541v28.372c0,6.875-0.396,7.175-3.489,7.446l-2.284,0.19
	l-0.215,0.07c-0.378,0.232-0.588,0.705-0.565,1.266c0.019,0.428,0.187,0.96,0.602,1.167l0.11,0.057l0.124-0.005
	c3.886-0.117,6.232-0.188,8.804-0.188c2.479,0,4.528,0.06,8.3,0.188l0.124,0.005l0.111-0.057c0.415-0.208,0.593-0.773,0.62-1.232
	c0.034-0.549-0.129-0.984-0.445-1.192l-2.256-0.27c-3.175-0.274-3.363-0.691-3.363-7.446V8.92c-0.001-0.649-0.001-1.261,0.103-1.366
	c0.107-0.107,0.796-0.107,1.251-0.107h4.503c3.4,0,5.713,0.487,7.073,1.492c0.603,0.44,1.123,2.048,1.393,4.298l0.016,0.143
	l0.093,0.11c0.232,0.282,0.662,0.451,1.15,0.451c0.603,0,1.105-0.259,1.31-0.675l0.062-0.124l-0.015-0.14
	C231.26,11.174,231.7,6.062,232.381,3.531L232.381,3.531z"/>
<path id="path2877" fill="#880A22" d="M278.786,64.762V41.917c0-6.76,0.189-7.181,3.365-7.513l1.329-0.126l0.224-0.079
	c0.316-0.21,0.48-0.648,0.446-1.2c-0.015-0.224-0.101-0.971-0.623-1.23l-0.112-0.056l-0.125,0.006
	c-3.069,0.135-5.163,0.188-7.471,0.188c-2.749,0-4.966-0.073-7.654-0.188l-0.124-0.006l-0.112,0.055
	c-0.521,0.258-0.61,1.001-0.625,1.224c-0.036,0.555,0.124,0.994,0.441,1.206l1.427,0.205c3.24,0.333,3.433,0.755,3.433,7.514v7.295
	c0,1.544,0,1.544-2.684,1.544h-18.15c-2.685,0-2.685,0-2.685-1.544v-7.295c0-6.76,0.189-7.18,3.372-7.514l1.204-0.125l0.22-0.08
	c0.317-0.211,0.479-0.65,0.443-1.205c-0.015-0.223-0.104-0.967-0.626-1.225l-0.113-0.055l-0.125,0.006
	c-2.889,0.134-5.015,0.188-7.338,0.188c-1.658,0-3.103-0.048-4.68-0.098c-1.016-0.031-2.087-0.066-3.304-0.091l-0.119-0.002
	l-0.105,0.053c-0.522,0.256-0.613,0.997-0.626,1.219c-0.039,0.556,0.121,0.997,0.439,1.211l0.107,0.071l1.777,0.136
	c2.796,0.214,3.294,0.79,3.294,7.511v22.845c0,6.606-0.122,6.885-3.276,7.453l-1.229,0.215l-0.108,0.108
	c-0.364,0.361-0.419,0.953-0.349,1.388c0.076,0.469,0.293,0.825,0.6,0.977l0.107,0.054l0.122-0.003
	c0.873-0.02,1.706-0.05,2.539-0.08c1.5-0.054,3.051-0.109,4.812-0.109c2.384,0,4.409,0.059,8.045,0.188l0.124,0.005l0.113-0.056
	c0.415-0.208,0.592-0.774,0.62-1.234c0.033-0.549-0.131-0.984-0.447-1.191l-2.056-0.268c-3.045-0.329-3.434-0.634-3.434-7.447V55.81
	c0-1.54,0-1.54,2.685-1.54h18.15c2.684,0,2.684,0,2.684,1.54v8.952c0,6.751-0.065,6.89-3.459,7.45l-1.362,0.214l-0.112,0.112
	c-0.363,0.364-0.417,0.958-0.345,1.392c0.078,0.467,0.296,0.822,0.601,0.974l0.113,0.056l0.126-0.006
	c3.038-0.134,5.255-0.188,7.653-0.188c2.501,0,4.704,0.068,7.66,0.188l0.124,0.005l0.111-0.055c0.525-0.258,0.613-1.002,0.626-1.224
	c0.036-0.553-0.125-0.991-0.442-1.201l-1.732-0.268C278.943,71.82,278.786,71.472,278.786,64.762L278.786,64.762z"/>
<path id="path2875" fill="#880A22" d="M337.597,38.34l0.031-0.152l-0.065-0.143c-0.272-0.611-0.946-0.884-1.492-0.884
	c-0.314,0-0.598,0.084-0.819,0.243l-0.153,0.18c-1.819,3.633-3.458,5.474-4.288,5.935c-1.365,0.682-3.285,0.901-7.905,0.901
	c-5.286,0-6.648-0.632-7.32-1.305c-0.899-0.958-1.075-3.023-1.075-6.267v-8.946c0-1.229,0-1.229,1.607-1.229h3.683
	c2.215,0,3.871,0.051,4.766,0.304c0.884,0.22,1.335,0.794,1.611,2.05l0.57,2.47l0.099,0.201c0.237,0.288,0.683,0.46,1.188,0.46
	c0.58,0,1.052-0.22,1.262-0.586l0.064-0.111V31.33c0-0.62-0.05-1.439-0.104-2.357c-0.07-1.156-0.149-2.468-0.149-3.738
	c0-1.328,0.079-2.686,0.148-3.884c0.056-0.97,0.105-1.841,0.105-2.523v-0.129l-0.063-0.113c-0.21-0.37-0.683-0.59-1.265-0.59
	c-0.505,0-0.949,0.171-1.188,0.459l-0.61,2.817c-0.287,1.45-0.645,1.666-1.198,1.85c-0.677,0.228-2.585,0.357-5.236,0.357h-3.683
	c-1.607,0-1.607,0-1.607-1.292V9.498c0-2.051,0-2.051,1.416-2.051h4.571c2.693,0,4.752,0.062,6.037,0.369
	c2.895,0.724,3.476,2.554,4.354,5.324l0.122,0.38l0.088,0.161c0.217,0.263,0.582,0.408,1.031,0.408c0.438,0,1.05-0.15,1.332-0.57
	l0.097-0.144l-0.084-0.938c-0.33-3.695-0.631-6.833-0.973-7.796l-0.146-0.417l-0.432,0.105c-0.703,0.175-4.641,0.175-8.45,0.175
	h-11.93c-2.443,0-4.536-0.053-7.462-0.188l-0.125-0.006l-0.112,0.055c-0.521,0.256-0.611,1-0.625,1.221
	c-0.038,0.557,0.122,0.997,0.438,1.209L304.889,7c3.249,0.384,3.441,0.806,3.441,7.514v22.845c0,6.875-0.396,7.175-3.492,7.446
	l-2.268,0.205l-0.124,0.125c-0.363,0.361-0.417,0.953-0.349,1.386c0.076,0.47,0.295,0.827,0.6,0.978l0.11,0.056l0.123-0.005
	c3.667-0.12,5.875-0.188,8.614-0.188h5.714c5.534,0,11.094,0.061,16.996,0.188l0.313,0.008l0.136-0.284
	C335.556,45.501,337.15,40.576,337.597,38.34L337.597,38.34z"/>
<path id="path2873" fill="#161547" d="M335.86,52.184c0.911-0.612,0.606-3.353-0.306-3.808c-6.551,0.304-11.728,0.455-17.667,0.455
	c-6.549,0-11.728-0.302-19.191-0.455c-0.913,0.455-1.217,3.195-0.304,3.808l3.959,0.304c7.922,0.609,8.987,3.2,8.987,19.19v54.826
	c0,15.99-0.306,17.516-8.835,19.037l-2.587,0.457c-0.914,0.912-0.609,3.352,0.302,3.809c5.941-0.15,11.12-0.457,17.668-0.457
	c5.939,0,11.116,0.151,19.343,0.457c0.912-0.457,1.217-3.201,0.305-3.809l-4.416-0.457c-8.529-0.914-9.291-3.047-9.291-19.037
	v-21.477c0-4.566,0.305-4.871,7.616-4.871H375c7.311,0,7.616,0.305,7.616,4.871v21.477c0,15.99,0,17.516-9.292,19.037l-2.894,0.457
	c-0.914,0.912-0.608,3.352,0.305,3.809c6.7-0.306,12.187-0.457,18.428-0.457c5.939,0,11.118,0.151,18.429,0.457
	c0.913-0.457,1.217-3.201,0.307-3.809l-3.657-0.457c-8.834-1.066-9.138-3.047-9.138-19.037V71.678c0-15.99,0.304-18.278,9.138-19.19
	l3.2-0.304c0.914-0.612,0.606-3.353-0.306-3.808c-6.854,0.304-12.03,0.455-17.973,0.455c-6.241,0-11.423-0.151-18.428-0.455
	c-0.913,0.455-1.219,3.195-0.305,3.808l2.894,0.304c8.985,0.913,9.292,3.2,9.292,19.19v17.514c0,4.723-0.307,4.873-7.616,4.873
	h-43.556c-7.312,0-7.616-0.15-7.616-4.873V71.678c0-15.99,0.305-18.278,9.139-19.19L335.86,52.184L335.86,52.184z"/>
<path id="path2871" fill="#880A22" d="M416.689,6.639c0.28-0.34,0.412-0.864,0.337-1.335c-0.064-0.396-0.271-0.72-0.582-0.915
	l-0.132-0.081l-0.153,0.009c-2.205,0.121-3.916,0.188-6.637,0.188c-2.435,0-4.791-0.062-7.207-0.188l-0.161-0.009l-0.136,0.091
	c-0.294,0.195-0.497,0.557-0.557,0.989c-0.066,0.475,0.053,0.932,0.327,1.256l0.132,0.155l1.789,0.136
	c1.456,0.12,2.445,0.509,2.786,1.091c0.738,1.302,1.146,5.882,1.146,12.893v7.301c0,7.479-2.116,16.39-12.205,16.39
	c-8.458,0-12.396-5.229-12.396-16.456V14.449c0-6.749,0.221-7.24,3.359-7.514l1.648-0.131l0.105-0.071
	c0.315-0.211,0.479-0.639,0.441-1.174c-0.027-0.442-0.209-0.989-0.624-1.194l-0.11-0.054l-0.123,0.005
	c-3.01,0.121-5.143,0.188-7.785,0.188c-2.606,0-4.853-0.069-7.849-0.188l-0.123-0.005l-0.109,0.054
	c-0.417,0.204-0.597,0.747-0.627,1.188c-0.037,0.537,0.123,0.966,0.438,1.179l0.107,0.072l1.711,0.131
	c3.142,0.273,3.361,0.765,3.361,7.514v14.974c0,7.674,1.579,12.41,5.116,15.35c2.798,2.391,6.896,3.604,12.188,3.604
	c4.999,0,9.781-1.836,12.477-4.79c3.076-3.295,4.572-8.364,4.572-15.495V20.92c0-3.216,0-10.751,0.845-12.743
	c0.296-0.64,1.383-1.127,2.769-1.241l1.729-0.138L416.689,6.639L416.689,6.639z"/>
<path id="path2869" fill="#39B54A" d="M473.578,6.732c0.305-0.306,0.459-0.804,0.403-1.297c-0.052-0.453-0.276-0.833-0.616-1.045
	l-0.131-0.083l-0.156,0.009c-2.083,0.121-3.735,0.188-6.509,0.188c-2.239,0-4.331-0.053-7.468-0.188l-0.097-0.005l-0.093,0.035
	c-0.369,0.136-0.628,0.482-0.713,0.951c-0.104,0.567,0.066,1.141,0.437,1.461l0.112,0.097l1.226,0.143
	c2.18,0.272,3.283,0.598,3.582,1.047c0.757,1.199,1.193,5.89,1.193,12.873V34.5c0,0.614,0,1.325-0.041,1.812
	c-2.2-2.274-4.502-4.852-7.363-8.054l-8.825-9.905c-6.279-7.042-9.873-11.66-10.687-13.729l-0.143-0.363l-0.386,0.059
	c-0.761,0.115-1.799,0.183-2.848,0.183c-1.109,0-4.486,0-7.132-0.188l-0.136-0.009l-0.12,0.06c-0.335,0.17-0.569,0.519-0.642,0.958
	c-0.088,0.528,0.064,1.081,0.387,1.406l0.119,0.122l1.245,0.145c1.692,0.211,2.954,0.689,3.635,1.37
	c1.185,1.296,1.271,2.466,1.271,4.238l0.001,18.916c0.002,3.067,0.011,10.252-0.784,12.297c-0.146,0.325-0.687,0.759-2.4,0.986
	l-1.884,0.208l-0.12,0.121c-0.282,0.281-0.427,0.733-0.389,1.21c0.04,0.478,0.249,0.884,0.575,1.115l0.139,0.099l0.171-0.009
	c2.207-0.122,3.908-0.188,6.573-0.188c2.148,0,4.295,0.055,7.403,0.188l0.169,0.008l0.136-0.098c0.297-0.212,0.497-0.55,0.562-0.951
	c0.071-0.465-0.046-0.946-0.325-1.32l-0.128-0.174l-2.193-0.21c-1.521-0.124-2.586-0.48-2.851-0.964
	c-0.685-1.207-1.075-5.905-1.075-12.895V17.112c0-1.136,0.019-2.345,0.133-3.207c1.009,1.127,2.688,3.112,4.198,4.9
	c1.036,1.226,1.998,2.361,2.617,3.074l14.725,16.75c4.891,5.567,7.233,8.33,8.089,9.541l0.146,0.207h0.254
	c0.833,0,1.455-0.386,1.668-1.034l0.033-0.102l-0.012-0.106c-0.087-0.738-0.188-3.255-0.188-11.046l-0.003-16.027
	c-0.01-3.251-0.03-10.017,0.9-11.995c0.08-0.16,0.844-0.701,3.189-1.069l1.05-0.147L473.578,6.732L473.578,6.732z"/>
<path id="path2867" fill="#880A22" d="M465.727,161.938v-54.22c0-16.143,0.304-18.733,9.29-19.494l3.808-0.304
	c0.912-0.612,0.606-3.353-0.308-3.808c-7.612,0.304-12.79,0.455-18.884,0.455c-6.396,0-11.575-0.151-19.188-0.455
	c-0.913,0.455-1.22,3.195-0.305,3.808l3.807,0.304c8.984,0.761,9.29,3.352,9.29,19.494v54.22c0,16.144-0.306,18.272-9.29,19.34
	l-3.807,0.457c-0.915,0.912-0.608,3.352,0.305,3.81c7.612-0.306,12.792-0.458,19.188-0.458c6.094,0,11.271,0.152,18.884,0.458
	c0.914-0.458,1.22-3.201,0.308-3.81l-3.808-0.457C466.029,180.21,465.727,178.08,465.727,161.938z"/>
<path id="path2865" fill="#880A22" d="M497.578,37.23V14.639c0-6.866,0.224-7.366,3.425-7.636l1.711-0.136l0.105-0.071
	c0.316-0.211,0.479-0.651,0.44-1.208c-0.012-0.221-0.103-0.966-0.625-1.223l-0.108-0.054l-0.125,0.005
	c-2.998,0.119-5.241,0.188-7.85,0.188c-2.728,0-4.903-0.066-7.974-0.188l-0.125-0.005l-0.11,0.054
	c-0.523,0.258-0.611,1.004-0.627,1.227c-0.034,0.554,0.127,0.994,0.445,1.205l0.104,0.07l1.709,0.135
	c3.202,0.271,3.429,0.771,3.429,7.638v22.59c0,6.831-0.164,7.186-3.442,7.576l-1.753,0.21l-0.12,0.119
	c-0.363,0.361-0.417,0.954-0.346,1.389c0.074,0.469,0.295,0.825,0.6,0.976l0.112,0.055l0.125-0.005
	c3.223-0.125,5.342-0.188,7.974-0.188c2.513,0,4.694,0.066,7.85,0.188l0.125,0.005l0.108-0.055c0.524-0.259,0.613-1.005,0.627-1.228
	c0.035-0.551-0.126-0.989-0.442-1.199l-1.798-0.268C497.738,44.416,497.578,44.061,497.578,37.23z"/>
<path id="path2863" fill="#880A22" d="M517.051,95.075c-11.575,8.985-19.191,23.456-19.191,40.362
	c0,19.644,9.445,33.502,21.628,41.883c11.118,7.46,24.214,10.201,37.923,10.201c9.746,0,20.715-2.285,24.062-3.504
	c1.679-0.606,3.503-1.218,5.331-1.522c2.284-2.894,6.244-12.944,7.312-20.865c-0.607-1.065-2.896-1.368-3.958-0.61
	c-3.506,8.988-12.188,21.781-31.833,21.781c-24.977,0-45.234-17.668-45.234-49.648c0-31.524,19.803-46.299,43.104-46.299
	c22.085,0,28.938,11.877,31.222,22.237c1.062,0.91,3.351,0.76,4.111-0.307c-1.218-9.288-1.979-18.883-2.133-22.387
	c-1.371,0.151-2.438-0.154-4.263-0.609c-7.161-1.98-18.736-3.655-26.958-3.655C542.33,82.132,528.168,86.396,517.051,95.075z"/>
<path id="path2861" fill="#880A22" d="M556.485,33.728c0.344-0.346,0.399-0.949,0.344-1.36c-0.061-0.462-0.265-0.814-0.575-0.993
	l-0.127-0.072l-0.146,0.009c-2.125,0.127-4.071,0.188-6.125,0.188c-2.495,0-4.889-0.069-6.565-0.188l-0.148-0.01l-0.129,0.075
	c-0.352,0.201-0.589,0.621-0.638,1.124c-0.049,0.506,0.112,0.974,0.436,1.252l0.113,0.1l1.29,0.143
	c2.219,0.254,2.424,0.719,2.427,0.719c0,0.415-0.062,1.051-0.538,2.3c-1.094,2.764-4.116,10.03-5.893,14.2
	c-0.471,1.08-1.064,2.487-1.719,4.04c-1.203,2.851-2.668,6.324-3.913,9.051c-3.004-6.897-5.77-13.819-8.575-20.891
	c-1.857-4.557-2.924-7.87-3.123-8.695c0.098-0.201,0.647-0.475,2.547-0.725l1.094-0.145l0.109-0.095
	c0.325-0.277,0.489-0.745,0.44-1.251c-0.05-0.503-0.289-0.925-0.639-1.126l-0.124-0.073l-0.145,0.008
	c-2.822,0.134-5.041,0.188-7.656,0.188c-2.648,0-4.673-0.058-6.567-0.188l-0.155-0.01l-0.135,0.084
	c-0.368,0.23-0.609,0.657-0.649,1.144c-0.036,0.485,0.136,0.942,0.46,1.224l0.114,0.1l1.295,0.143
	c2.468,0.288,3.31,1.419,4.744,4.905l11.168,27.537c1.329,3.299,2.306,6.117,2.896,8.381l0.062,0.236l0.228,0.093
	c0.369,0.15,0.749,0.225,1.135,0.225c0.364,0,0.71-0.096,0.973-0.271l0.143-0.095l0.051-0.162
	c1.089-3.408,4.136-10.888,6.581-16.514l3.427-7.805c2.941-6.672,5.389-11.701,7.075-14.538c0.808-1.305,1.657-1.882,2.917-1.989
	l2.09-0.139L556.485,33.728L556.485,33.728z"/>
<path id="path2859" fill="#880A22" d="M602.018,38.34l0.033-0.152l-0.065-0.143c-0.273-0.61-0.947-0.884-1.491-0.884
	c-0.315,0-0.6,0.084-0.821,0.243l-0.15,0.18c-1.821,3.632-3.459,5.472-4.289,5.935c-1.364,0.682-3.283,0.901-7.906,0.901
	c-5.287,0-6.647-0.632-7.318-1.305c-0.9-0.957-1.079-3.023-1.079-6.267v-8.946c0-1.229,0-1.229,1.609-1.229h3.681
	c2.218,0,3.875,0.051,4.769,0.304c0.883,0.22,1.334,0.794,1.614,2.049l0.566,2.471l0.099,0.203c0.237,0.286,0.684,0.458,1.19,0.458
	c0.581,0,1.052-0.22,1.26-0.586l0.064-0.112v-0.13c0-0.62-0.048-1.439-0.104-2.357c-0.069-1.156-0.147-2.468-0.147-3.738
	c0-1.328,0.078-2.686,0.146-3.884c0.061-0.97,0.107-1.841,0.107-2.523v-0.129l-0.062-0.112c-0.21-0.369-0.684-0.59-1.265-0.59
	c-0.505,0-0.95,0.171-1.188,0.458l-0.611,2.819c-0.285,1.45-0.643,1.666-1.196,1.85c-0.679,0.228-2.59,0.357-5.239,0.357h-3.681
	c-1.609,0-1.609,0-1.609-1.292V9.498c0-2.051,0-2.051,1.42-2.051h4.569c2.692,0,4.75,0.062,6.04,0.369
	c2.89,0.724,3.471,2.554,4.354,5.323l0.119,0.381l0.091,0.162c0.215,0.262,0.581,0.407,1.031,0.407c0.438,0,1.051-0.15,1.331-0.57
	l0.099-0.145l-0.086-0.933c-0.326-3.698-0.63-6.836-0.973-7.8l-0.147-0.417l-0.428,0.105c-0.705,0.175-4.642,0.175-8.447,0.175
	h-11.933c-2.445,0-4.536-0.053-7.462-0.188l-0.128-0.006l-0.109,0.055c-0.522,0.256-0.612,1-0.627,1.221
	c-0.036,0.557,0.125,0.997,0.438,1.209L569.311,7c3.247,0.384,3.44,0.806,3.44,7.514v22.845c0,6.876-0.396,7.175-3.491,7.446
	l-2.266,0.205l-0.127,0.125c-0.359,0.359-0.415,0.949-0.348,1.383c0.075,0.47,0.292,0.829,0.599,0.981l0.112,0.056l0.125-0.005
	c3.663-0.12,5.873-0.188,8.611-0.188h5.712c5.536,0,11.1,0.061,16.998,0.188l0.312,0.008l0.138-0.284
	C599.979,45.492,601.574,40.567,602.018,38.34L602.018,38.34z"/>
<path id="path2857" fill="#880A22" d="M651.322,45.394c-1.812,1.373-4.285,1.55-6.239,1.55c-2.866,0-3.747-0.109-4.011-0.188
	C641,46.492,641,45.745,641,45.019v-14.85c0-1.426,0-1.543,3.637-1.543c7.138,0,9.665,5.003,9.665,9.286
	C654.302,41.429,653.355,43.807,651.322,45.394L651.322,45.394z M670.447,69.007c0.294-0.231,0.441-0.606,0.386-0.98
	c-0.051-0.346-0.266-0.625-0.573-0.745l-0.142-0.032c-1.515-0.11-3.042-0.73-4.101-1.665c-4.369-3.664-7.847-9.015-12.653-16.764
	c-0.331-0.535-0.38-0.781-0.372-0.885c2.107-0.88,8.062-3.99,8.062-10.979c0-5.315-3.009-8-5.526-9.312
	c-3.183-1.728-7.259-1.961-10.827-1.961c-5.812,0-10.32,0.163-14.192,0.507l-0.176,0.05c-0.368,0.185-0.613,0.594-0.654,1.094
	c-0.044,0.545,0.158,1.067,0.521,1.328l0.101,0.075l2.158,0.265c2.067,0.252,2.365,0.7,2.365,6.938v22.787
	c0,6.71-0.156,7.057-3.377,7.447l-1.777,0.211l-0.123,0.144c-0.358,0.417-0.395,1.022-0.308,1.45
	c0.085,0.429,0.295,0.744,0.59,0.889l0.11,0.055l0.125-0.005c2.821-0.116,5.128-0.188,7.911-0.188c2.622,0,4.826,0.072,7.531,0.188
	l0.127,0.006l0.113-0.057c0.466-0.231,0.58-0.841,0.609-1.091c0.063-0.562-0.082-1.049-0.395-1.304l-0.104-0.087l-1.47-0.208
	c-3.263-0.454-3.389-0.731-3.389-7.449V50.73c0-0.906,0-0.906,2.494-0.906c2.437,0,3.264,0.584,4.106,1.818
	c0.965,1.401,2.085,3.177,3.172,4.896c1.135,1.795,2.207,3.49,3.052,4.689c4.356,6.21,7.646,8.201,13.533,8.201
	c1.225,0,2.297-0.123,2.94-0.337L670.447,69.007L670.447,69.007z"/>
<path id="path2853" fill="#880A22" d="M669.926,12.99c0-2.449,0.919-6.559,7.066-6.559c5.595,0,7.302,3.641,8.161,6.812l0.095,0.181
	c0.202,0.249,0.545,0.385,0.96,0.385c0.479,0,1.123-0.193,1.404-0.619l0.079-0.122v-0.146c0-2.593-0.533-6.216-1.166-7.914
	l-0.12-0.317h-0.337c-0.449,0-1.294-0.111-2.103-0.36c-1.517-0.408-3.894-0.843-6.022-0.843c-8.034,0-13.434,4.582-13.434,11.4
	c0,5.796,4.43,9.583,7.071,11.325l6.03,3.939c4.382,2.819,4.983,5.739,4.983,8.474c0,3.389-2.303,6.808-7.445,6.808
	c-6.425,0-9.227-4.953-10.448-9.106l-0.062-0.134c-0.189-0.284-0.534-0.438-0.969-0.438c-0.42,0-1.028,0.161-1.354,0.619
	l-0.097,0.136l0.005,0.167c0.122,2.869,0.938,7.566,1.772,9.096l0.062,0.12l0.12,0.069c1.243,0.726,4.723,2.412,10.145,2.412
	c8.377,0,14.004-4.914,14.004-12.227c0-5.075-2.669-9.194-8.158-12.595l-5.081-3.175C673.16,19.183,669.926,16.631,669.926,12.99
	L669.926,12.99z"/>
<path id="path2851" fill="#00939A" d="M623.257,124.727h-9.468c-2.155,0-2.232-0.215-1.616-5.131l4.851-37.203
	c0.846-6.412,1.613-11.546,1.846-12.618h0.155c0.463,2.565,1.153,8.344,1.769,13.472l4.158,34.853
	C625.644,123.873,625.489,124.727,623.257,124.727z M643.115,182.883c-3.312-1.072-4.311-4.277-6.543-22.665l-10.545-85.952
	c-1.154-9.403-2.387-19.241-3.389-28.648c-0.152-1.495-0.69-1.923-1.152-1.923c-0.849,2.78-2.154,6.628-4.003,8.126
	c0.23,3.42-0.23,7.479-1.31,15.174l-7.851,57.731c-3.233,23.945-5.39,37.844-6.775,47.68c-1.076,7.697-2.769,10.051-4.616,10.478
	l-2.541,0.642c-0.461,1.066-0.307,4.49,0.155,5.348c2.078-0.214,4.848-0.643,7.389-0.643c3.617,0.213,6.005,0.213,8.007,0.643
	c0.69-0.855,0.69-4.28,0.152-5.348l-2.541-0.642c-1.847-0.427-2.231-1.711-2.231-4.276c0-2.354,0.54-8.125,1.693-17.748
	l2.693-22.446c0.54-4.494,1-5.134,2.925-5.134h11.622c2.31,0,2.619,0.64,3.158,5.345L630.8,167.7
	c0.617,5.133,1.001,8.979,1.001,11.33c0,2.142-1.077,3.426-2.691,3.853l-2.233,0.643c-0.541,1.065-0.463,4.49,0.153,5.347
	c2.232-0.214,5.155-0.644,8.852-0.644c3.464,0,6.158,0.215,9.313,0.644c0.384-0.856,0.538-4.28,0-5.347L643.115,182.883
	L643.115,182.883z"/>
<path id="path2847" fill="#880A22" d="M713.459,37.23V14.639c0-6.935,0.19-7.364,3.415-7.636l1.719-0.136l0.105-0.071
	c0.316-0.211,0.479-0.65,0.441-1.204c-0.015-0.223-0.104-0.968-0.624-1.225l-0.107-0.055l-0.125,0.005
	c-3.003,0.119-5.249,0.188-7.853,0.188c-2.723,0-4.904-0.066-7.979-0.188l-0.125-0.005l-0.112,0.056
	c-0.518,0.259-0.604,1.006-0.62,1.229c-0.034,0.551,0.127,0.989,0.442,1.199l0.104,0.071l1.712,0.135
	c3.234,0.274,3.426,0.703,3.426,7.638v22.59c0,6.833-0.161,7.186-3.442,7.576l-1.755,0.21l-0.118,0.119
	c-0.36,0.361-0.415,0.952-0.346,1.385c0.075,0.469,0.292,0.826,0.596,0.979l0.114,0.057l0.125-0.005
	c3.229-0.125,5.352-0.188,7.979-0.188c2.521,0,4.621,0.063,7.853,0.188l0.125,0.005l0.107-0.057
	c0.522-0.258,0.611-1.006,0.624-1.229c0.034-0.55-0.128-0.986-0.441-1.195l-1.805-0.269
	C713.618,44.416,713.459,44.062,713.459,37.23L713.459,37.23z"/>
<path id="path2845" fill="#F15523" d="M771.312,3.531l0.047-0.176L771.28,3.19c-0.233-0.473-0.891-0.525-1.163-0.525
	c-0.159,0-0.393,0.018-0.598,0.099l-0.158,0.064l-0.085,0.147c-0.814,1.414-1.152,1.529-4.528,1.529h-26.232
	c-2.84,0-4.113-0.149-4.378-1.568l-0.026-0.15L734,2.679c-0.175-0.175-0.461-0.26-0.873-0.26c-0.151,0-0.666,0.012-0.947,0.2
	l-0.174,0.116l-0.037,0.207c-0.442,2.535-1.383,6.552-2.39,9.377l-0.071,0.196l0.094,0.186c0.386,0.765,1.685,1.138,2.381,0.614
	l0.103-0.078l0.054-0.117c0.646-1.469,1.256-2.857,2.734-4.215c1.402-1.285,4.568-1.458,7.48-1.458h3.49
	c1.414,0,1.414,0,1.414,1.541V37.36c0,6.876-0.396,7.175-3.487,7.446l-2.284,0.19l-0.214,0.068
	c-0.382,0.234-0.595,0.709-0.567,1.273c0.021,0.427,0.188,0.958,0.606,1.164l0.109,0.054l0.121-0.004
	c3.882-0.117,6.226-0.188,8.804-0.188c2.481,0,4.526,0.06,8.294,0.188l0.122,0.005l0.112-0.055c0.522-0.258,0.61-1.002,0.625-1.225
	c0.034-0.552-0.127-0.99-0.442-1.2l-2.259-0.271c-3.174-0.273-3.36-0.691-3.36-7.446V8.91c-0.004-0.646-0.004-1.253,0.103-1.356
	c0.107-0.107,0.797-0.107,1.253-0.107h4.502c3.4,0,5.716,0.487,7.073,1.491c0.597,0.441,1.117,2.047,1.391,4.299l0.017,0.141
	l0.09,0.11c0.234,0.284,0.663,0.453,1.152,0.453c0.603,0,1.105-0.259,1.312-0.674l0.062-0.125l-0.017-0.14
	C770.191,11.18,770.629,6.07,771.312,3.531L771.312,3.531z"/>
<path id="path2843" fill="#880A22" d="M797.277,84.416c-2.594-0.608-10.664-2.284-19.347-2.284
	c-22.998,0-38.072,7.155-48.275,17.818c-9.443,10.05-13.711,23.147-13.711,36.095c0,13.402,4.878,25.434,14.014,34.57
	c11.727,11.88,28.327,16.906,46.45,16.906c8.225,0,19.188-1.828,27.265-3.959c2.893-0.763,5.636-1.373,7.456-1.373
	c0.614-0.455,0.614-1.373,0.156-1.826c-2.738-1.065-3.654-4.721-3.654-10.812v-8.531c0-7.765,0.154-12.028,6.549-12.791l2.438-0.307
	c1.064-0.912,0.91-3.195-0.151-3.806c-5.026,0.303-10.207,0.454-16.145,0.454c-8.988,0-17.364-0.151-21.78-0.454
	c-1.067,0.454-1.219,3.2,0,3.806l6.701,0.766c9.44,1.064,9.896,1.979,9.896,14.771v6.094c0,4.872-0.759,7.614-1.519,8.681
	c-1.68,2.586-7.312,4.569-16.758,4.569c-30.612,0-45.691-23.001-45.691-52.239c0-22.844,12.953-43.862,42.496-43.862
	c15.534,0,26.955,5.18,31.221,21.626c0.916,0.915,3.657,0.765,4.113-0.456c-1.372-9.14-2.287-17.058-2.287-22.082
	C804.89,86.091,800.168,85.025,797.277,84.416L797.277,84.416z"/>
<path id="path2841" fill="#880A22" d="M819.516,6.757c0.322-0.281,0.496-0.739,0.459-1.225c-0.035-0.485-0.276-0.912-0.646-1.142
	l-0.133-0.083l-0.153,0.009c-4.514,0.262-7.173,0.261-11.94,0l-0.13-0.008l-0.117,0.059c-0.354,0.178-0.598,0.535-0.669,0.98
	c-0.081,0.512,0.076,1.042,0.415,1.385l0.122,0.123l1.308,0.144c1.231,0.154,1.999,0.455,2.224,0.622
	c-0.2,0.909-2.419,5.026-3.768,7.525l-0.29,0.54c-1.528,2.955-3.291,6.139-5.522,9.966c-1.672-3.021-3.302-6.344-4.882-9.565
	c-0.623-1.264-1.24-2.522-1.86-3.76c-0.458-0.917-1.893-4.161-1.917-4.666c0-0.128,0.293-0.383,2.253-0.663l0.984-0.15l0.114-0.115
	c0.344-0.346,0.492-0.971,0.355-1.519c-0.103-0.435-0.376-0.754-0.747-0.874l-0.093-0.031l-0.095,0.009
	c-1.558,0.123-3.828,0.186-6.753,0.186c-2.938,0-5.264-0.06-7.327-0.188l-0.144-0.008l-0.13,0.072
	c-0.311,0.179-0.521,0.511-0.597,0.938c-0.085,0.509,0.047,1.041,0.346,1.39l0.113,0.131l1.949,0.346
	c1.682,0.284,2.522,0.425,4.659,4.562l7.485,14.601c1.792,3.454,1.979,4.169,1.979,7.646v3.235c0,6.887-0.156,7.241-3.367,7.576
	l-2.143,0.205l-0.122,0.125c-0.361,0.364-0.413,0.956-0.344,1.39c0.079,0.467,0.297,0.821,0.603,0.972l0.109,0.056l0.123-0.005
	c3.42-0.125,5.644-0.188,8.295-0.188c2.575,0,4.849,0.071,8.615,0.188l0.121,0.005l0.11-0.056c0.305-0.151,0.523-0.51,0.601-0.98
	c0.07-0.434,0.015-1.025-0.35-1.385l-0.126-0.126l-2.588-0.202c-2.938-0.221-3.357-0.705-3.357-7.575v-3.302
	c0-4.755,0.134-5.224,2.915-10.034l3.999-6.916c0.363-0.625,0.711-1.23,1.042-1.814c2.495-4.36,4.3-7.511,6.995-7.979l1.911-0.339
	L819.516,6.757L819.516,6.757z"/>
<path id="path2839" fill="#880A22" d="M853.166,131.02c0-33.354,20.558-44.167,36.398-44.167c29.088,0,40.205,27.107,40.205,52.239
	c0,30-17.36,43.709-35.638,43.709C864.131,182.801,853.166,153.559,853.166,131.02L853.166,131.02z M837.938,135.891
	c0,27.414,20.404,51.631,54.217,51.631c29.394,0,52.847-22.389,52.847-53.153c0-26.802-17.669-52.236-52.847-52.236
	C860.78,82.131,837.938,105.434,837.938,135.891z"/>
<path id="path2835" fill="#A7BB39" d="M888.448,60.729c0,30.913-9.211,41.88-17.099,41.88c-15.59,0-19.752-31.323-19.752-49.829
	c0-31.253,9.417-42.339,17.483-42.339C883.375,10.441,888.447,37.532,888.448,60.729L888.448,60.729z M897.164,56.071
	c0-25.326-8.385-52.582-26.8-52.582c-15.667,0-27.48,23.254-27.48,54.091c0,25.832,9.439,51.982,27.48,51.982
	C885.643,109.562,897.164,86.567,897.164,56.071z"/>
<path id="path24" fill="#880A22" d="M939.758,13.398l0.061-0.116l-0.01-0.131c-0.125-2.295-0.194-5.26-0.194-8.349v-0.61
	l-0.597,0.135c-0.769,0.176-4.677,0.176-8.455,0.176h-11.68c-2.39,0-4.514-0.054-7.334-0.188l-0.123-0.006l-0.112,0.055
	c-0.524,0.258-0.612,1.002-0.628,1.225c-0.035,0.555,0.127,0.995,0.446,1.206l1.222,0.203c3.223,0.389,3.379,0.739,3.379,7.515
	v22.845c0,6.71-0.156,7.059-3.376,7.448l-1.755,0.21l-0.118,0.118c-0.361,0.357-0.417,0.947-0.351,1.38
	c0.076,0.473,0.294,0.831,0.598,0.985l0.113,0.058l0.127-0.006c2.972-0.122,5.112-0.188,7.912-0.188
	c2.562,0,4.763,0.069,8.428,0.188l0.12,0.005l0.112-0.057c0.415-0.208,0.594-0.772,0.622-1.232c0.033-0.55-0.128-0.984-0.448-1.192
	l-2.38-0.269c-3.235-0.274-3.429-0.691-3.429-7.446v-8.824c0-1.227,0-1.227,1.607-1.227h4.317c2.227,0,3.887,0.051,4.736,0.295
	c0.892,0.284,1.371,0.866,1.709,2.065l0.669,2.628l0.117,0.1c0.628,0.54,1.973,0.51,2.375-0.101l0.084-0.123v-0.146
	c0-0.659-0.053-1.506-0.107-2.449c-0.069-1.151-0.146-2.455-0.146-3.708c0-1.285,0.076-2.645,0.146-3.844
	c0.056-0.986,0.107-1.878,0.107-2.565v-0.146l-0.084-0.123c-0.301-0.455-0.945-0.504-1.206-0.504c-0.527,0-0.986,0.171-1.229,0.459
	l-0.669,2.743c-0.355,1.539-0.783,1.691-1.268,1.865c-0.669,0.225-2.629,0.359-5.236,0.359h-4.317c-1.607,0-1.607,0-1.607-1.224
	V9.498c0-2.051,0-2.051,1.421-2.051h3.87c2.621,0,4.691,0,6.03,0.367c2.722,0.708,3.533,2.529,4.085,5.642l0.03,0.171l0.131,0.114
	c0.245,0.21,0.584,0.327,0.961,0.327C938.926,14.066,939.521,13.86,939.758,13.398"/>
<path id="path2885" fill="#2C2E85" d="M58.011,158.219c1.363,0.922,2.965,1.33,4.435,1.957c1.821,4.762,0.044,9.441-0.978,7.5
	C59.675,164.271,58.97,161.447,58.011,158.219z M58.096,106.075l-0.112-0.11c-0.132,0-9.465,5.889-15.53,3.062
	c4.517-2.5,20.165-12.441,24.445-15.261c2.02,0.435,2.836-0.292,3.481-0.744c-1.635,0.103-7.057,0.948-4.316-3.903
	c1.054,4.349,8.656,0.348,11.385-0.281c7.605-1.75,7.55,6.379,6.901,9.739c-0.243,1.252,2.33,2.142,3.598,1.961
	c-2.18,5.37-5.901,0.308-6.345,2.356c-0.18,0.83-2.671,1.48-2.66,3.545c0.015,2.818,1.116,1.277,1.217,3.463
	c0.112,2.117-0.902,0.47-0.672,2.76c0.364,3.636,6.378-0.482,8.864,0.5c1.244,0.49,2.067,1.604,3.28,1.386
	c0.354-0.291,0.194-1.666,0.139-2.155c-0.127-1.154-2.262-1.289-3.256-2.865c-0.866-1.375,0.981-5.514,1.983-6.729
	c1.435,6.83,7.835,4.688,8.79,11.869c0.602,2.03-2.2,4.287,0.072,7.593c-1.688,1.639-3.716,9.41-0.183,13.062
	c-0.6,1.654-1.387,5.469,1.758,7.697c-1.057,2.252-0.815,5.006,0.076,7.81c-1.959,0.007-1.569-10.984-13.305-11.334
	c-0.262-0.082-0.325,1.246,0.013,1.841c1.406,2.471,3.293,2.327,2.889,8.143c-0.138,1.986-1.304-0.349-1.926-0.898
	c-1.421-1.254-2.52-1.422-3.139-5.512c-4.769,3.738-4.3,8.265-4.002,10.563c0.003,0.007-1.053-2.868-2.256-5.815
	c-0.064-0.156,4.844-6.06,5.624-7.463c9.901-17.822-6.394,5.762-6.427,5.682c-0.877-2.031-1.644-3.783-2.16-4.336
	c0.126-0.246,2.845-3.278,4.075-5.838c7.659-15.947-4.551,5.311-4.988,4.921c-0.924-0.831-1.686-1.872-2.27-1.497
	c-0.137,2.447-0.722,2.117-0.554,4.617c-1.276,1.703-4.015,4.381-5.93,5.707c0,0-0.478-4.426-0.349-4.582
	c0.961-1.172,4.728-5.209,5.498-6.416c12.549-19.711-5.875,4.748-5.909,4.537c-0.13-0.779-1.14-2.065-2.215-3.162
	c0,0,4.069-5.545,5.07-7.607c7.636-15.699-6.137,6.958-6.29,6.877c-0.33-0.174-0.364-0.17-0.749-0.301
	c-0.383-0.129,0.422-4.521,0.954-7.166c1.034-5.23-1.739-1.016-2.494,7.273c-0.708,0.11-2.426,0.291-3.078,0.881
	c0.421,2.213,0.944,0.512,1.871,2.637c1.11,2.547-1.546,6.721,0.765,9.777c0.894,1.181,0.945,0.981,0.77,1.756
	c-1.422-0.104-2.286-0.131-3.184,1.099c-1.748-7.94-1.694-11.764-1.284-19.833c0.182-3.668,1.386-9.219,0.836-9.322
	c-0.522-0.102-8.837,21.314-10.845,25.51c-3.506-1.184,2.184-19.715,9.413-28.637c0.682-2.838-3.79,2.877-6.461,5.153
	c-2.448,2.088-5.547,4.81-8.925,3.876c4.337-4.587,14.281-13.167,15.386-15.312c0.926-1.838-6.784,5.723-14.93,2.912
	C45.775,116.73,58.075,110.453,58.096,106.075z M72.763,146.354c0.032,1.953-0.106,3.398,0.461,5.383
	c0.923,2.996,0.461,2.072-0.796,1.044c-1-1.113-1.935-2.027-2.415-3.326C69.894,148.531,70.635,148.48,72.763,146.354z
	 M92.453,98.096c-1.189-2.025,1.417-3.958,1.417-3.958c-0.079,5.699,7.206,1.788,11.008,3.597c0.915,0.422,1.557,1.226,1.933,2.07
	C102.721,96.979,95.162,102.723,92.453,98.096z M49.605,52.575c-6.501,0-6.365-9.75,0-9.75
	C56.002,42.825,56.002,52.575,49.605,52.575z M49.605,72.045c-6.65,0-6.65-9.744,0-9.744C56.002,62.301,56.042,72.045,49.605,72.045
	z M56.276,45.436h5.667v5.575h-5.667V45.436z M56.276,64.859h5.667v5.575h-5.667V64.859z M107.736,80.039
	c0,0-5.931-3.217-12.895-3.681c-6.732-0.447-20.335,4.931-30.779,4.221V34.685c0,0,11.909,1.583,16.801-0.304
	c16.634-6.415,26.873,0.752,26.873,0.752V80.039z M119.228,87.487c0.292,1.734-1.316,2.168-1.311,2.168
	c2.496,0.582,3.69-0.904,4.179-1.843c0.96,3.99-3.062,4.215-4.315,4.454c-0.002-0.001,2.038,0.585,2.143,1.914
	c0.266,3.373,2.436,3.085,2.904,2.82c-0.077,0.406-0.748,2.441-3.185,0.605c-0.414,0.408,0.665,1.037,0.877,2.711
	c0.275,2.119,0.208,4.08,2.652,5.373c-1.499,1.189-3.264-1.912-3.417-1.543c-0.175,0.418,2.083,1.557-0.401,7.412
	c-1.134-0.652-0.501-0.527-1.815-2.088c-1.005-0.843-1.401-1.033-0.561,0.354c1.465,1.831,1.811,6.017,1.305,7.146
	c-1.208-0.524-0.896-1.489-2.321-2.803c-0.131,0.56,0.437,3.334,1.909,4.662c2.543,2.297,3.445,5.069,3.491,5.616
	c0.202,2.087-0.454,4.835-0.702,7.523c-1.221-0.176-2.257-3.64-2.554-3.443c-0.36,0.232,0.154,3.392,2.454,5.539
	c1.114,3.256,0.667,5.004,0.37,5.121c-0.392,0.17-1.632-3.328-2.307-2.72c3.276,8.332,0.983,11.235,0.117,13.802
	c-0.676-2.631-1.02-4.6-1.867-7.58c-1.785,1.4-2.214,3.479-4.396,5.381c0-3.397-1.965-11.604-3.522-13.517
	c-0.071-0.087-2.815,7.356-4.064,10.665c-1.622,4.291-1.874,9.655,0,13.835c-4.043-5.754-4.479-16.46-0.988-17.905
	c0.302-0.765-0.21-3.282-0.988-2.973c-0.224,1.232-0.074,2.287-1.095,3.49c-2.679-0.785-1.459-4.055-1.216-5.137
	c3.474-4.166,1.301-5.129,1.14-5.021c-0.376,0.954-0.705,2.124-1.765,2.558c-2.229-3.83-0.8-9.84,3.432-14.332
	c0.178-1.678-1.895,1.25-3.244,1.147c-0.351-3.231,0.82-8.84,6.796-9.044c-1.141-0.334-1.751-0.542-2.027-1.493
	c1.806-0.27,7.472-0.702,6.537-5.174c-0.537,0.539-0.708,1.342-2.186,2.24c-0.993,0.604-2.074,0.657-2.636-0.218
	c2.629-0.869,1.76-4.067-1.671-3.127c-1.051,0.287-2.589-0.811-2.665-2.028c0.764,0.764,2.312,0.198,3.208-0.384
	c3.861-2.51,6.219,1.125,6.739,1.906c0.156,0,1.732-3.633-3.75-4.608c-0.458-1.277-1.711-3.534-5.432-3.25
	c-1.227-4.327-4.937-2.193-4.814-0.234c-3.942-2.902,0.069-6.566,1.66-7.131c1.104,0.091,0.86,3.587,2.798,2.999
	c0.469-0.14-1.507-2.408-0.75-3.437c1.778-1.015,1.738,1.301,2.614,0.438c0.435-1.516,2.179-2.365,3.617-2.527
	C112.231,85.237,115.364,89.655,119.228,87.487L119.228,87.487z M155.484,80.743c-8.751,0.596-26.905-4.385-31.521-4.385
	c-9.523,0-14.129,3.718-14.129,3.718s0.014-43.228,0-44.784c0,0,12.514-5.867,21.618-2.507c11.148,4.115,24.032,2.292,24.032,2.292
	V80.743z M167.005,63.081c4.824-0.704,5.55,4.988,5.55,4.988h-0.009c-1.188-0.944-3.574-1.372-5.191-0.329
	c-5.389,3.469-10.244,3.508-10.244,3.508v-8.693C157.111,62.555,158.135,64.376,167.005,63.081L167.005,63.081z M172.714,51.18
	c-0.036-0.258-0.09-0.653-0.167-1.21c-0.123-0.87-2.616-1.372-4.38-0.602c-2.466,1.077-8.645,4.605-10.9,3.938v-8.692
	c5.561,2.413,7.733,0.234,9.522,0.234c5.491,0,5.766,5.122,5.766,5.122C172.628,50.527,172.68,50.922,172.714,51.18z M166.5,141.279
	c-1.625,0.424-5.91,2.135-6.943,3.815c0.548-9.265-2.444-18.364-3.397-20.562c-1.856-4.281,0.831,9.963,1.015,13.246
	c0.004,0.145-15.376-19.768-6.09-4.432c2.406,3.975,6.166,6.567,6.167,6.637c0.063,2.765-0.121,4.799-0.647,6.281
	c-0.946,0.756-20.942-26.609-9.889-7.656c1.37,2.35,9.389,9.461,9.322,9.604c-0.507,1.08-1.409,2.652-2.651,3.812
	c-0.211-0.209-4.614-3.455-4.644-3.652c-0.333-2.117-0.345-4.114-2.958-2.617c0,0-9.853-11.469-5.29-3.431
	c1.994,3.514,3.302,3.903,3.833,4.528c0,0-1.527,2.071-2.02,4.272c-0.197,0.881-8.542-9.252-5.268-2.887
	c1.049,2.038,4.864,4.265,4.823,4.409c-0.39,1.324-0.786,2.608-1.204,3.443c-0.525,1.059-7.852,6.897-7.841,6.893
	c0-0.002,1.432-4.627,4.547-6.893c1.777-1.301,1.782-1.016,2.961-1.755c-0.025-0.685-0.683-1.8-1.537-2.095
	c-1.068-0.379-4.536,0.252-4.536,0.252c0.324-1.733-1.194-5.475-1.174-9.588c-1.306,0.129-3.597,2.147-4.151,3.295
	c-0.4,6.814-1.882,4.773-3.266,9.677c-1.506-2.056,0.104-5.01-1.373-6.935c-2.031-2.646-2.338-4.431-2.639-7.688
	c0.475-0.264,2.547-2.555,0.66-7.359c-0.308-7.549,3.066-10.436-2.966-15.721c0.507-0.162,0.871-3.945,0.871-3.951
	c4.445,2.371,3.564-2.744,5.295-3.748c2.75-1.596,2.251-3.25,1.017-5.31c7.862,2.235-0.355,7.61,3.204,7.726
	c2.581,0.08,4.311-0.574,5.431-2.311c1.194-1.834-0.206-2.959,3.129-5.934c0.333-0.297,1.217-2.281-1.428-2.828
	c-0.579-0.119,0.005-2.383,0.005-2.383c-2.118,1.793-2.784,4.315-6.188,2.721c-1.743-0.818-2.873-0.014-3.586,0.33
	c0,0-0.362-1.424,1.08-1.905c3.725-1.251,4.645-2.737,4.442-3.552c-0.504-1.936-0.655,0-0.547-2.038
	c0.046-0.81,0.989-1.911,1.77-2.854c2.526-3.048,4.315-1.905,4.96-1.635c1.469-1.136,1.728-1.056,3.094-1.596
	c2.339-0.919,7.41,0.608,10.242,1.924c1.374,0.622,3.015,0.994,4.618,0.641c-0.015,0.826-0.595,1.271-1.17,1.438
	c-0.885,0.274-1.939,0-1.87,0.646c0.04,0.379,1.251,0.445,2.009,0.65c4.199,1.146,9.635,4.907,6.065,4.116
	c-0.42-0.095,2.575,2.237,4.835,5.27l8.006,7.779c-0.369,0.44-3.175,0.041-12.066-8.291c-1.265,1.129,10.814,10.231,15.8,19.896
	c-0.43,0.301-6.645-1.963-8.885-4.273c-3.452-3.57-7.42-12.65-9.05-11.322c-0.196,0.076,6.564,10.602,9.904,16.844
	c1.686,3.16,3.074,7.687,3.188,11.096c0.536,16.814-1.996,15.521-1.994,15.523c-3.94-13.252-5.783-28.643-11.53-35.742
	C157.699,112.27,166.138,127.525,166.5,141.279z M149.083,156.396c-1.777,1.561-2.938,2.114-2.551,1.34
	c0.433-0.863,0.753-1.596,0.994-2.24C147.608,155.28,149.083,156.396,149.083,156.396z M147.915,154.311
	c0.394-1.414,0.395-2.389,0.578-3.635c0.081-0.535,0.094-0.471,0.119-0.921c0.007-0.147,3.852,3.2,4.067,3.335
	c-0.965,1.209-1.79,1.643-2.71,2.499C149.318,155.027,147.879,154.445,147.915,154.311z M160.396,158.588
	c-5.337,5.271-13.343,3.362-19.651,6.186c-5.716,2.084-9.856,7.371-15.851,8.707c-1.763,0.568-2.054,1.449-0.93,1.418
	c0.659-0.018,4.312,3.797,10.159,0.856c1.951-0.981,8.015-4.36,9.04-4.555c-3.281,3.125-4.929,5.92-7.862,7.569
	c-1.796,1.006-9.109,3.625-16.403,2.209c-3.231-0.629-5.719,2.353-4.896,2.283c1.73-0.463,3.67-0.228,4.836,1.301
	c2.117,1.658,5.184,3.727,7.822,0.645c0.877-1.021,5.065-3.193,9,0.798c-4.186-0.219-3.771,7.312-11.703,6.429
	c-2.936-0.021-9.424-6.736-11.271-4.662c-3.279,3.686,7.045,7.181,2.574,11.813c-4.036,4.185-8.86-3.333-8.86-3.333
	c2.519,1.057,7.167,1.736,5.121-2.357c-0.812-1.625-2.357-3.088-2.357-6.096c-0.354-1.498-9.594,11.897-15.707,5.846
	c-2.401-2.377-7.265-7.592-11.671-9.578c11.668-0.991,13.446,3.68,14.003,4.429c3.731,5.035,7.18-0.078,7.974-0.976
	c1.216-1.385,2.937-3.287,2.327-3.576c-4.525-2.146-9.696-2.602-13.558-0.829c8.268-11.365,14.701-0.722,14.7-0.726
	c0.906,0.564-0.231-6.74-8.409-7.144c-5.107-0.251-9.603,4.345-13.125,4.34c-2.864-0.004-11.546-5.868-13.588-11.076
	c5.052,3.78,11.496,5.948,15.512,3.554c7.551-4.5,17.062,2.287,17.514,1.478c-2.11-1.651-6.915-8.092-19.88-4.422
	c-5.03,2.889-7.151-2.144-10.24-2.228c5.255-4.662,8.897-2.291,10.733-2.148c0.437,0-2.192-2.161-4.034-2.354
	c-14.329-1.492-23.404-5.432-23.404-5.432c-0.075,0,1.194-2.889,7.352-0.807c0,0-5.522-3.381-5.477-7.727
	c0.18-2.679,1.475-5.547-0.574-7.779c8.316-0.34,2.409,11.256,8.248,14.244c0.125,0.049-1.719-2.771,0.88-4.955
	c1.207,3.404,4.175,5.166,6.263,5.717c0.49-0.27,1.096-1.313,1.096-1.312c-2.197-3.633-2.486-7.866-1.895-12.716l0.087-0.048
	c0.473,0.022,1.272,1.666,1.834,2.875c1.212,2.608,1.184,6.36,3.6,9.454c1.338,1.703,2.167,3.404,3.367,4.229
	c0.519-1.209,0.135-3.282,0.055-3.836c-0.272-1.969-1.507-5.419,1.86-8.467c1.574,4.547,3.716,3.229,4.006,5.409
	c0.401,3.053,0.269,2.566-0.042,4.91c0.159,3.231,3.096,4.143,5.703,6.207c5.877,3.199,9.779,4.931,12.337,9.025
	c1.249-6.912-17.408-8.295-15.001-21.631c-0.25-5.326,0.663-5.773-3.112-9.025c7.486,0.219,11.565,12.506,11.971,14.748
	c0.749,4.121,3.251,4.336,6.688,9.711c0.494,0.18-6.144-14.317,1.769-26.729c0,0,2.667,6.448,1.41,10.677
	c-0.759,2.547-0.055,5.364,0.086,6.96c0.145,1.628-0.325-5.883,5.328-9.769c0.351,2.843,3.075,7.244,0.494,11.961
	c-3.14,5.738-3.369,3.677-3.417,10.734c0.285-0.121,1.098-4.864,3.251-7.561c4.552-5.688,1.301-8.751,5.745-13.682
	c0.353,2.466,0.981,1.49,1.246,3.685c0.596,4.931-4.551,10.323-3.414,10.16c1.311-0.185,3.414-1.326,4.119-5.065
	c0,0,1.896,3.414,0.163,4.553c-3.142,2.062-3.794,4.279-3.307,6.772c2.52-3.007,5.961-6.34,5.365-10.622
	c0.285-2.586,3.087-3.633,3.644-9.639c0.094-0.996,1.089-2.205,2.083-2.734c-0.434,3.373,2.188,6.863-0.792,10.991
	c0.679,0.362,3.2-3.222,6.884-1.915c-7.395,1.333-5.237,9.344-10.902,13.053c-1.708,1.117-1.417,2.373-1.928,2.515
	c5.059-0.286,8.958-6.312,9.634-6.771c5.085-3.439,6.198-3.964,8.23-9.539c0.796-2.119,0.218-3.057,3.037-5.914
	c1.235,2.818-0.56,8.662-0.988,9.922c-0.91,2.689-4.107,5.02-3.43,5.02c13.63-6.016,13.459-10.057,16.719-14.362
	c0.979-1.646,5.827-4.502,7.641-4.768c-0.444,0.897-2.329,2.407-2.417,4.039c-0.165,3.014-1.137,4.852-2.66,7.268
	c0.847,1.052,2.474-1.983,4.137-0.461C163.086,154.695,162.106,157.146,160.396,158.588L160.396,158.588z M162.674,157.789
	c-0.809,3.971-2.18,7.65-4.57,11.07c-1.672,2.426-2.353-2.289-0.911-6.854C159.239,161.191,161.284,159.605,162.674,157.789z
	 M152.294,57.04c-0.317-0.119-0.979-0.241-1.399-0.241c-0.418,0-0.643,0.595-0.123,0.733c0.333,0.093,0.95,0.202,1.544,0.229
	C152.72,57.799,152.59,57.165,152.294,57.04z M150.744,58.946c0.326,0.098,0.923,0.186,1.535,0.23
	c0.384,0.049,0.259-0.595-0.038-0.716c-0.298-0.107-0.96-0.235-1.369-0.243C150.432,58.217,150.224,58.789,150.744,58.946z
	 M150.744,67.63c-0.301-0.354-1.114-1.027-1.841-1.542c-0.419,0.345-1.278,0.969-1.828,1.255c-0.408-0.461-0.947-1.097-1.775-1.74
	c-0.498,0.34-1.933,1.65-2.538,1.995c0.873,0.022,2.175,0.311,2.224,1.122c0.029,0.659-0.049,4.767,0,5.518
	c0.534,0.114,1.165,0.06,1.944,0.017c0.036-0.582,0.024-5.318,0.036-5.893c0.261-0.145,0.569-0.292,0.72-0.425
	c0.301,0.224,1.216,1.275,1.746,1.558c0.361-0.276,1.312-1.109,1.729-1.501C151.603,67.555,151.126,67.276,150.744,67.63
	L150.744,67.63z M148.348,60.729c0.498-0.901,1.232-2.36,1.184-3.469c-0.065-1.365-0.902-3.39-2.905-4.056
	c-2.538,0.903-4.106,2.905-4.175,5.274c-0.047,1.385,1.131,4.24,3.566,4.256C146.767,62.013,147.559,61.249,148.348,60.729z
	 M146.808,61.266c-0.47-0.229-2.185-1.551-2.578-2.563c-0.514-1.365-0.514-2.874,0.939-3.759c1.134,0.417,2.456,1.532,2.575,2.557
	C147.905,58.83,147.522,60.405,146.808,61.266z M146.744,50.711l1.824-1.994c0,0-0.812-0.636-1.292-1.226
	c0-0.417,0-4.411,0.176-4.626c-1.373-1.224-2.374-1.377-2.965-1.3c-1.111,0.167-2.248,1.591-2.609,2.069
	c-0.264,0.377-0.195,0.851,0,1.027c0.221,0.181,0.507,0.364,0.81,0.545c-0.05-0.031-0.098-0.061-0.15-0.083
	c-0.521,0.49-1.278,1.898-1.252,2.854c0.01,0.96,0.875,2.354,1.455,2.875c0.644-0.498,1.595-1.33,2.993-1.601
	C145.888,49.922,146.209,50.33,146.744,50.711z M145.645,46.11c-0.898-0.321-2.67-1.154-3.312-1.685
	c-0.171-0.135-0.188-0.212,0.021-0.546c0.409-0.608,0.874-1.14,1.2-1.115c0.279,0,2.082,0.964,2.022,1.471
	C145.64,44.594,145.65,45.351,145.645,46.11L145.645,46.11z M145.658,48.813c-0.467,0.025-0.876,0.15-1.475,0.437
	c-0.49-0.4-1.765-1.94-0.825-3.661c-0.13-0.078-0.265-0.146-0.39-0.225c0.865,0.485,1.876,0.91,2.672,1.165
	c-0.008,0.685-0.027,1.302-0.027,1.527C145.611,48.348,145.633,48.584,145.658,48.813z M140.414,40.61
	c-0.431,0-3.315,0.062-3.389-0.103c-0.21-0.617-0.264-1.369,0.231-2.414c0.248-0.521-0.231-0.739-0.417-0.215
	c-0.181,0.511-1.625,2.507-3.125,3.15c-0.771,0.304,0.94,1.014,0.823,0.981c-0.009,1.921,0.267,4.804,0.677,5.958
	c0.254,0.688,1.034,1.805,1.571,1.464c0.349-0.219,1.101-1.714,1.34-1.904c0.417-0.339,0.01-0.915-0.338-0.569
	c-0.386,0.338-0.714-0.188-0.82-0.54c-0.127-0.341-0.48-4.568-0.301-4.649c0,0,3.41-0.414,3.749-0.414
	C140.646,41.356,140.659,40.61,140.414,40.61L140.414,40.61z M131.048,48.402l1.409-1.831c-1.022-0.176-1.445-0.365-2.158-1.178
	l0.028-4.543l-1.439-1.439l-0.493,0.054l-2.257,1.982c-0.232,0.345,0.374,0.345,0.675-0.066l1.639,0.938l0.072,4.397
	c0.125,0.525,0.56,1.035,1.21,1.685L131.048,48.402L131.048,48.402z M129.828,38.315l0.792-0.688v-1.104l-1.068-1.036l-1.06,0.903
	l0.025,1.272l0.656,0.652L129.828,38.315L129.828,38.315z M126.211,36.913c-0.605-0.073-2.607,0.096-3.329,0.21
	c-0.724,0.11-0.724,0.461-0.122,0.535c0.599,0.062,0.714,0.188,1.03,0.995c0.29,0.812-1.155,4.494-1.515,5.36
	c-0.421-0.631-1.954-4-1.954-4.457c0-0.328,0.676-0.656,0.966-0.734c0.566-0.175,0.554-0.563,0.126-0.647
	c-1.197-0.17-5.417-0.541-6.163-0.634c-0.539-0.046-0.784,0.578-0.131,0.578c0.677,0.019,1.38-0.183,2.117,0.899
	c0.853,1.225,3.526,6.973,4.164,9.389c0.315-0.508,2.983-8.244,3.137-9.062c0.191-0.801,0.754-1.583,1.539-1.815
	C126.886,37.311,126.812,36.966,126.211,36.913z M113.554,55.612c0.035,3.218,1.314,3.49,2.778,4.333
	c1.386,0.784,3.714,0.626,5.458,0.165c0.662-0.192,1.019-0.232,0.998,0.339c0,0.356,0.501,0.28,0.501,0.014
	c0-0.262,0.023-2.961,0.023-3.259c0-0.337-0.487-0.288-0.487,0c0,0.45,0,0.584-0.442,1.227c-1.203,1.776-4.207,1.705-5.815-0.468
	c-0.551-0.74-1.053-1.729-0.414-1.916c0.633-0.194,2.566,0.208,3.844,0.315c0.768,0.05,2.534,0.23,2.756,0.357
	c0.196,0.147,0.495,0.333,0.495-0.053c0.018-0.377,0.018-1.617,0.018-2.001c0-0.371-0.289-0.192-0.505-0.062
	c-0.219,0.153-2.103,0.468-2.857,0.6c-0.76,0.141-3.096,0.329-3.712,0.12c-0.629-0.208-0.42-1.471,0.14-2.194
	c1.628-2.155,4.918-2.005,6.109-0.212c0.409,0.624,0.409,0.771,0.409,1.24c0,0.281,0.472,0.315,0.472,0
	c0.028-0.305,0.039-3.561,0.039-3.822c0-0.254-0.477-0.346-0.477,0c0,0.237-0.523,0.376-1.04,0.237
	c-1.021-0.321-3.999,0.139-5.326,0.866C115.34,52.111,113.529,53.664,113.554,55.612L113.554,55.612z M114.123,61.322
	c0.036,0.914,0.372,8.784,0.271,9.876c-0.062,0.625,0.775,1.286,1.54,1.808c0.371-0.45,1.18-1.626,1.849-2.122
	c0.394-0.322,0.121-0.535-0.184-0.415c-0.602,0.28-1.209,0.062-1.268-0.635c-0.056-0.697-0.056-7.469,0-8.446
	C115.866,61.389,114.558,61.364,114.123,61.322z M120.614,67.755c-0.522,0.493-1.455,1.771-1.434,2.715
	c0.014,0.965,0.479,1.895,1.038,2.415c0.955-0.667,1.552-1.583,3.14-2.196c0.196,0.742,0.719,0.855,1.338,1.321
	c0.371-0.403,1.721-2.062,2.018-2.351c0.3-0.284,0.128-0.576-0.296-0.284c-0.426,0.284-0.718,0.109-1.429-0.655
	c0.026-0.414-0.048-3.797,0.117-3.986c-0.648-0.698-1.244-1.647-2.01-1.577c-1.111,0.093-2.527,2.033-2.877,2.537
	c-0.28,0.362,0.012,1.752,0.221,1.926C120.514,67.688,120.55,67.695,120.614,67.755L120.614,67.755z M121.392,68.32
	c0.621,0.346,0.934,0.133,1.897,0.028c-0.005,0.607-0.02,1.153-0.022,1.445c-0.425,0.304-0.948,0.57-1.549,0.866
	C121.241,70.265,120.542,69.931,121.392,68.32z M120.884,65.529c0.405-0.619,0.66-0.739,0.984-0.739
	c0.292,0.018,1.421,0.794,1.362,1.316c0.055,0.34,0.068,1.047,0.064,1.77c-0.845,0.103-1.44,0.199-2.388-0.6
	C120.731,67.135,120.683,65.851,120.884,65.529z M127.698,64.28c-0.72,0.359,0.961,1.025,0.849,0.995
	c-0.022,1.905-0.407,5.02,0.248,6.009c0.402,0.605,1.325,1.001,1.941,0.764c0.591-0.236,1.347-1.418,1.571-1.612
	c0.44-0.329,0.065-0.679-0.303-0.339c-0.361,0.339-1.346,0.098-1.479-0.245c-0.103-0.357-0.229-4.515-0.057-4.599
	c0,0,1.188-0.025,1.502-0.015c0.25,0,0.267-0.755,0.023-0.755c-0.433-0.007-1.389-0.092-1.445-0.264
	c-0.143-0.391,0.034-1.659,0.28-2.172c0.252-0.52-0.23-0.748-0.423-0.24C130.211,62.346,128.965,63.656,127.698,64.28z
	 M128.044,55.627c0.071,1.801-0.865,3.694-1.886,4.549c1.764-0.458,1.994-1.509,2.958-2.748c0.533,0.789,1.524,1.74,2.248,2.152
	c0.509-0.337,1.952-1.956,2.268-2.29c-1.04-0.278-3.049-1.341-3.549-2.462c-0.395-0.831-0.301-1.225,0.093-1.88
	c0.35,0.461,2.792,1.583,3.891-0.29c-1.201-0.438-2.282-1.225-2.647-1.861c-0.322,0.268-1.396,1.438-2,1.808
	c-0.14-0.644-1.127-1.336-1.928-1.48c-0.26,0.279-2.144,1.715-3.003,2.134c-0.265,0.127-0.165,0.704,0.206,0.558
	c0.352-0.153,0.933-0.595,1.606-0.915C127.08,53.204,127.964,53.998,128.044,55.627L128.044,55.627z M136.485,55.919
	c0.216-1.091,0.982-1.539,1.335-1.868c0.498,0.552,0.998,1.176,1.746,1.176c0.731,0.006,1.491-0.333,1.728-0.635
	c-0.604-0.486-1.979-1.934-2.255-2.206c-0.696,0.386-3.72,1.956-3.977,3.771c-0.369,2.674,0.479,3.208,1.653,4.676
	c0.66,0.833,1.766,0.873,2.268,0.744c0.542-0.376,2.522-2.255,2.742-2.491c0.199-0.231-0.089-0.442-0.335-0.206
	c-0.246,0.224-0.15,0.321-0.478,0.37c-0.336,0.054-1.684,0.28-2.467-0.128C137.468,58.606,136.191,57.397,136.485,55.919z
	 M135.006,64.456c-0.446,0.454-1.226,0.977-1.958,1.788c0.605,0.042,1.107,0.172,1.399,0.752c0.299,0.576,0.046,3.002,0.088,3.938
	c0.048,0.908,0.598,1.1,1.318,1.853c0.719-0.183,2.722-1.02,3.398-1.483c-0.061,0.745,0.881,1.582,1.438,1.745
	c0.373-0.406,0.779-0.628,1.328-1.139c-0.535-0.357-0.465-0.406-0.666-1.116c-0.156-0.685,0.039-3.279,0.057-4.39
	c-0.425-0.643-1.121-1.412-1.833-1.946c-0.504,0.459-1.183,1.073-1.978,1.91c0.592-0.08,1.759,0.158,1.815,0.656
	c0.034,0.643,0.131,2.047,0,3.139c-0.134,1.1-3.094,0.595-3.132-0.145c-0.066-0.762,0.151-2.953,0.166-3.989
	C136.028,65.385,135.78,65.032,135.006,64.456L135.006,64.456z M115.357,91.08v-0.109c-1.711-0.246-3.052-1.442-4.619-2.035
	c-2.165-0.818-4.461,0.853-4.461,1.118c0,0.584,0.615,0.882,2.366-0.22c-1.372,1.59,0.188,2.881,0.188,2.881
	c-0.57-0.085-1.385-0.275-1.905-0.575c-0.106,0.575,0.685,0.784,1.062,1.035C110.893,94.368,112.804,91.572,115.357,91.08z
	 M110.463,92.556c0,0,0.771-0.835,0.769-1.433c-0.002-0.811-0.766-1.402-0.766-1.402c0.657,0.189,2.215,1.066,2.773,1.434
	L110.463,92.556z M94.539,70.522l0.833-0.922c-0.938-0.174-0.501-0.165-0.998-0.622l-0.029-3.817l-1.22-1.79l-0.462,0.065
	l-1.912,1.785c-0.506,0.442-0.06,0.655,0.529,0.167l1.264,0.653l0.031,4.044c0.106,0.5,0.55,0.615,1.165,1.249L94.539,70.522z
	 M94.954,57.235c0.646,1.833,2.165,2.41,3.297,2.5c0.336-0.626,0.962-1.58,1.306-2.023c0.51-0.676-0.01-1.083-0.366-0.304
	c-0.274,0.6-1.744-0.055-2.277-0.567c-0.715-0.666-1.16-2.414-0.59-3.029c0.577-0.62,1.403-0.336,2.468-0.366
	c0.703-0.035,0.853-0.682,0.971-1.012c-0.339-0.16-0.845-0.448-1.511-0.849c-0.687,0.436-1.745,1.336-2.203,1.715
	C95.478,53.781,94.309,55.449,94.954,57.235z M97.713,67.328c-0.693,0.712-1.207,1.5-1.198,2.491
	c0.035,0.942,0.349,1.881,1.309,2.306c0.849-0.626,1.943-1.386,2.997-1.584c0.516,0.62,1.31,1.034,1.785,1.409
	c0.33-0.399,1.381-1.253,1.673-1.518c0.276-0.283,0-0.678-0.292-0.307c-0.224,0.341-0.965,0.094-1.176-0.255
	c0-0.401-0.385-4.643-0.215-4.839c-0.611-0.682-1.667-2.221-2.376-2.146c-1.032,0.106-2.577,1.582-2.91,2.065
	c-0.252,0.362,0.075,2.108,0.273,2.275C97.636,67.266,97.663,67.28,97.713,67.328z M100.429,67.692
	c-0.78,0.017-1.45-0.224-2.301-0.973c-0.161-0.136-0.313-1.104-0.128-1.42c0.374-0.595,0.374-0.78,0.7-0.773
	c0.254,0,1.824,0.949,1.741,1.455C100.5,66.342,100.47,67.025,100.429,67.692z M98.365,67.834c0.715,0.481,1.125,0.418,2.026,0.33
	c-0.038,0.489-0.071,0.938-0.071,1.138c0,0.216,0.088,0.387,0.15,0.57c-0.466,0.167-1.06,0.267-1.518,0.495
	C98.538,70.001,97.013,68.959,98.365,67.834z M104.247,59.969l0.854-0.919c-0.958-0.182-0.958-0.117-1.467-0.576l0.037-4.42
	l-0.835-1.232l-0.446,0.059l-1.922,1.774c-0.518,0.464-0.054,0.684,0.522,0.171l0.993,0.606l0.036,4.163
	c0.102,0.499,0.539,0.67,1.151,1.301L104.247,59.969z M102.745,44.499c-0.396-0.023-0.995,0.7,1.315,0.938
	C104.419,45.478,104.9,44.63,102.745,44.499z M102.772,43.117c-0.382-0.021-0.98,1.031,1.325,0.945
	C104.458,44.049,104.725,43.229,102.772,43.117z M103.215,50.062l-0.989-1.025l-0.995,0.895l0.019,1.232l0.609,0.624h0.618
	l0.739-0.667L103.215,50.062L103.215,50.062z M101.203,40.603c-0.672-0.46-1.404-1.579-3.025-1.651
	c-1.63-0.065-3.469,1.408-4.066,2.334c-0.793,1.225,0.179,2.3,1.215,3.095c-0.662,0.567-1.583,1.442-2.436,2.24
	c0.341,0.371,2.208,1.252,3.255,1.228c1.583-0.035,3.046-0.852,3.949-1.576c1.647-1.303,1.075-2.687-0.6-3.665
	c-0.16-0.097-0.315-0.124-0.474-0.155C100.06,41.627,100.968,40.893,101.203,40.603z M97.042,44.013
	c0.55,0.249,1.11,0.497,1.721,0.857c0.884,0.5,0.429,1.451-0.522,1.89c-0.968,0.445-2.7-0.806-2.969-1.318
	C95.625,45.134,96.292,44.605,97.042,44.013z M98.788,41.688c-0.146,0.117-0.561,0.454-1.01,0.812
	c-0.265,0.046-0.533,0.076-0.809,0.042c-0.829-0.119-1.229-0.744-1.611-1.246c-0.394-0.524,0.625-0.959,1.126-0.906
	C96.993,40.46,98.116,41.062,98.788,41.688z M91.969,45.276c-2.424,0.611-3.557-1.332-3.8-1.852c0.98-1.001,2.645-2.64,3.66-3.472
	c-0.67-0.619-0.948-1.643-2.139-1.73c-1.039,0.028-3.461,1.205-3.886,4.282c-0.407,2.954,2.365,4.55,4.562,4.639
	c0.733,0,1.646-0.947,2.1-1.171C93.44,45.495,93.079,45.022,91.969,45.276z M87.993,42.842c-0.611-1.969-0.381-2.646,0.841-3.619
	c0.275,0.678,0.976,1.167,1.367,1.401C89.511,41.296,88.439,42.513,87.993,42.842z M85.191,41.09
	c0.414-0.406-0.027-0.701-0.396-0.348c-0.273-0.327-0.974-1.05-1.349-1.491c-0.397,0.332-1.31,0.879-1.819,1.164
	c-0.398-0.456-0.89-0.456-1.688-1.081c-0.441,0.338-1.418,1.055-1.945,1.692c0.928,0.27,1.627,0.324,1.685,1.12
	c0.035,0.648-0.067,4.637-0.013,5.369c0.497,0.108,1.104,0.06,1.808,0.023c0.056-0.571,0.029-5.575,0.029-6.13
	c0.268-0.149,0.541-0.293,0.674-0.417c0.292,0.224,0.871,1.067,1.339,1.345C83.875,42.07,84.795,41.487,85.191,41.09z
	 M77.539,51.425c-1.053,0.095-2.574,1.326-3.028,2.386c-0.182,0.424,0.078,1.952,0.271,2.12c0.137,0.12,0.246,0.204,0.366,0.297
	c-0.691,0.643-1.34,1.19-1.32,2.145c0.028,0.92,0.76,1.738,1.704,2.167c0.506-0.77,1.296-1.242,2.14-1.441
	c0.07,0.735,0.241,1.272,0.722,1.643c0.346-0.384,1.731-1.58,1.999-1.852c0.293-0.275,0.074-0.607-0.268-0.275
	c-0.203,0.188-0.699-0.091-0.844-0.333c0-0.401,0-4.634,0.177-4.825C78.834,52.78,78.239,51.349,77.539,51.425z M77.622,55.721
	c-1.174,0.76-1.548,0.735-2.356-0.176c-0.401-0.466-0.365-1.344-0.18-1.675c0.365-0.573,1.004-1.15,1.309-1.144
	c0.264,0.018,1.21,1.167,1.145,1.669C77.588,54.672,77.607,55.184,77.622,55.721L77.622,55.721z M77.634,57.837
	c-0.007,0.229,0,0.424,0.004,0.63c-0.228,0.058-0.482,0.111-0.799,0.271c-0.431-0.365-2.47-1.033-1.134-2.11
	c0.82,0.482,1.136,0.106,1.929-0.384C77.639,56.935,77.634,57.589,77.634,57.837L77.634,57.837z M76.718,48.876
	c-0.143-0.182-0.415-0.476-0.428-0.846c0-0.244,0.03-2.796,0.03-3.114c0-0.301-0.603-0.269-0.603,0
	c-0.028,0.454,0.04,1.227-0.365,1.853c-1.12,1.731-3.251,2.445-4.75,0.321c-0.51-0.705-0.631-1.772-0.695-2.534
	c-0.102-1.018,0.67-2.333,0.714-2.453c1.907-2.499,4.552-0.643,4.767,0.373c0.142,0.678,0.294,1.508,0.294,1.944
	c-0.018,0.29,0.607,0.26,0.62-0.04c0-0.311,0.018-4.151,0.018-4.42c0.011-0.249-0.504-0.33-0.515,0
	c-0.027,0.607-0.386,0.66-0.851,0.51c-0.965-0.287-3.104-0.746-4.347-0.032c-1.094,0.644-2.77,2.151-2.74,4.047
	c0.034,3.12,1.211,3.382,2.579,4.223c1.281,0.754,3.053,0.266,4.67-0.201c0.642-0.175,0.72,0.23,1.029,0.685
	C76.667,49.891,77.091,49.444,76.718,48.876z M68.069,53.286c-1.079,1.652-1.671,4.258,0.2,5.781c0.881,0.736,1.611,1.31,3.407,0.99
	c0.356-0.713,0.517-0.949,1.147-1.772c-1.239,0.2-2.195-0.024-3.099-0.708c-1.862-1.445-1.286-3.771-0.736-4.566
	c1.004-1.491,2.433,0.64,2.688,0.931c0.332-0.397,0.905-0.964,1.465-1.404c-0.555-0.733-1.009-1.414-1.385-1.856
	C70.565,51.111,68.816,52.179,68.069,53.286L68.069,53.286z M68.839,67.562c-0.399,2.97,2.401,4.737,3.748,5.309
	c0.339-0.683,1.026-1.79,1.701-2.566c0.513-0.598-0.052-0.756-0.513-0.296c-0.62,0.677-2.47,0.034-2.96-0.86
	c0.893-0.674,3.224-2.623,4.238-3.454c-0.669-0.627-1.705-2.188-1.865-3.085C72.284,63.219,69.294,64.475,68.839,67.562z
	 M71.731,64.345c0.27,0.688,1.13,1.998,1.519,2.229c-0.668,0.671-2.311,1.785-2.772,2.11C69.636,67.627,69.183,65.905,71.731,64.345
	z M77.855,63.266c-0.581,0.549-1.039,1.049-1.887,1.72c0.395,0.454,1.063,1.025,1.124,1.805c0.051,0.788,0.021,4.443,0.07,5.358
	c0.621,0,0.511,0.065,1.579,0.023c-0.105-0.62-0.016-5.364-0.016-6.043c0.401-0.381,0.458-0.441,0.917-0.783
	c0.33,0.289,1.103,0.46,1.103,0.967c0,0.512,0.153,2.763-0.028,3.595c-0.224,1.015-0.124,1.745,0.424,2.77
	c0.417-0.465,1.97-1.551,2.306-1.822c0.333-0.288,0.16-0.504-0.27-0.388c-0.46,0.1-0.541,0.188-0.541-0.103
	c0-0.546-0.218-3.018-0.25-4.595c-0.056-1.582-0.829-2.048-1.272-2.265c-0.454,0.503-1.464,1.139-2.07,1.652
	C78.586,64.822,78.361,64.066,77.855,63.266z M84.22,59.44c0.532-0.426,0.925-1.144,1.144-1.314c0.41-0.337,0.073-0.684-0.273-0.36
	c-0.276,0.272-1.001-0.359-1.034-0.401c-0.235-0.276-0.58-3.896-0.419-3.978c0,0,2.302-0.284,2.605-0.279
	c0.229,0.016,0.259-0.718,0.013-0.73c-0.375,0-2.131,0.242-2.194,0.07c-0.096-0.382-0.334-1.672,0.244-2.781
	c0.271-0.482-0.009-0.95-0.189-0.456c-0.204,0.503-1.646,2.742-2.579,3.11c-0.761,0.312-0.675,0.489-0.185,0.612
	c0.389,0.076,0.792,0.542,0.718,0.535c-0.076,1.857-0.259,4.15,0.318,5.123C82.756,59.205,83.764,59.841,84.22,59.44z M92.13,60.264
	c-0.285,0.562-0.744,1.074-1.582,1.456c0.509,0.444,1.174,1.017,1.611,1.304c0.504-0.56,0.966-1.079,1.546-1.627
	C93.131,61.284,92.466,60.996,92.13,60.264z M88.505,58.214c0.731-0.06,1.909,0.378,3.217,0.271
	c1.555-0.111,2.775-2.521,2.104-4.396c-0.626-1.78-2.61-1.468-3.947-1.893c-1.228-0.335-1.736-1.107-0.396-1.987
	c1.575-1.018,3.53,0.613,3.718,0.957c0.289,0.519,0.53,0.51,0.53-0.165c0.042-1.474-0.094-0.64-0.241-2.027
	c-0.049-0.496-0.41-0.539-0.444-0.062c-0.032,0.485-0.622,0.336-1.066,0.336c-0.451-0.009-1.766-0.21-2.901,0.42
	c-0.723,0.42-2.374,1.715-1.449,3.266c0.54,0.906,3.712,1.643,4.501,2.164c0.793,0.518,0.972,1.85,0.213,2.461
	c-0.943,0.749-3.509,0.119-3.905-0.336c-0.52-0.575-0.718-1.049-0.828-1.715c-0.109-0.682-0.683-0.624-0.683,0
	c0,0.622,0.146,2.754,0.26,3.254c0.103,0.521,0.623,0.349,0.671-0.046C87.919,58.349,88.164,58.243,88.505,58.214z M85.18,64.862
	c-0.604,0.453,0.711,1.085,0.594,1.05c0.047,1.862-0.223,3.776,0.411,4.722c0.401,0.588,1.651,1.019,1.868,0.457
	c0.21-0.567,1.157-1.724,1.37-1.92c0.394-0.348,0.046-0.667-0.285-0.324c-0.687,0.726-1.069,0.391-1.573-0.09
	c-0.244-0.276-0.336-2.881-0.16-2.958c0,0,1.257-0.183,1.559-0.183c0.234,0,0.215-0.724-0.031-0.724
	c-0.377,0-1.499,0.01-1.563-0.167c-0.14-0.36,0.224-2.116,0.287-2.904c0.051-0.556-0.248-0.732-0.397-0.213
	C87.098,62.116,85.892,64.345,85.18,64.862z"/>
</svg>
